<?xml version="1.0" encoding="utf-8"?>
<svg xmlns="http://www.w3.org/2000/svg" viewBox="0 0 256 256" aria-hidden="true">
  <path fill="#A6CE39" d="M256,128c0,70.692-57.308,128-128,128C57.308,256,0,198.692,0,128C0,57.308,57.308,0,128,0C198.692,0,256,57.308,256,128z"/>
  <g fill="#FFFFFF">
    <path d="M86.173,186.151h-15.383V79.041h15.383V186.151z"/>
    <path d="M108.752,79.041h41.598c39.639,0,57.796,28.345,57.796,53.629c0,27.471-21.455,53.629-56.766,53.629h-41.627V79.041H108.752z M124.087,172.411h24.449c34.939,0,42.927-26.477,42.927-39.596c0-21.609-13.938-33.851-42.927-33.851h-24.449V172.411z"/>
    <path d="M88.678,56.811c0,5.541-4.491,10.039-10.039,10.039c-5.541,0-10.047-4.492-10.047-10.039c0-5.541,4.506-10.039,10.047-10.039C84.186,46.767,88.678,51.265,88.678,56.811z"/>
  </g>
</svg>
